<svg xmlns="http://www.w3.org/2000/svg">
    <symbol id="arrow_up" viewBox="0 0 118.52 139.74" fill="currentColor">
        <path d="M115.6,52.19,66.33,2.93A10,10,0,0,0,55.43.76a9.89,9.89,0,0,0-3.24,2.18h0L2.93,52.19A10,10,0,0,0,17.07,66.33L49.26,34.14v95.6a10,10,0,0,0,20,0V34.14l32.19,32.19A10,10,0,1,0,115.6,52.19Z"/>
    </symbol>
    <symbol id="twitter" viewBox="0 0 1105.09 902.51" fill="currentColor">
        <path d="M333.43,706.37c-104.57-8.15-174.94-60.28-212.17-157.19,34.15,5.19,67.58,4.08,100.92-5.42-52.49-12.32-96.46-38.34-130.45-80.19s-50.82-90.23-51-145.42c32.33,17.2,65.79,26.71,101.74,27.5C73.35,294.38,39.16,226.47,43,140.11,44.34,109.63,60.11,58.26,73.08,43,196.33,187.75,352.36,267.34,543.21,280.43c-1.29-8.42-2.56-15.54-3.47-22.72-6.55-51.43,2.26-100.08,28.85-144.65,36.47-61.16,90.12-99,160.6-110,76.65-11.91,143.1,10.75,198.56,65.1,2.59,2.53,4.75,3.69,8.67,2.88a460.08,460.08,0,0,0,135.63-51.75c.71-.41,1.45-.78,3.32-1.79a223.48,223.48,0,0,1-38.28,70.9c-16.8,21.15-37,38.56-59.66,53.42,44-4.42,85.9-16.08,127.66-33.94-1.48,2.51-2.1,3.77-2.9,4.92a455.24,455.24,0,0,1-103,106.65c-4.42,3.28-6.21,6.45-6,12.27C996.37,341.94,972.48,446.22,924,545c-42.88,87.3-101.66,162-177.9,222.66-80.57,64.07-171.92,104.52-273,123.31a683.34,683.34,0,0,1-153.66,11q-154.81-6.4-290.36-82c-9.29-5.2-18.35-10.84-27.51-16.28A4,4,0,0,1,0,802c59.56,5.81,118.15,1,175.67-15.25S285.43,743.71,333.43,706.37Z"/>
    </symbol>
    <symbol id="instagram" viewBox="0 0 872.74 872.74" fill="currentColor">
        <circle cx="668.31" cy="203.47" r="52.63"/><path d="M436.36,212.37c-123.71,0-224,100.29-224,224s100.28,224,224,224,224-100.29,224-224S560.06,212.37,436.36,212.37Zm0,369.37A145.38,145.38,0,1,1,581.74,436.36,145.38,145.38,0,0,1,436.36,581.74Z"/>
        <path d="M622.1,0H250.64C112.21,0,0,112.21,0,250.64V622.1C0,760.53,112.21,872.74,250.64,872.74H622.1c138.43,0,250.64-112.21,250.64-250.64V250.64C872.74,112.21,760.53,0,622.1,0Zm173,620.84a174.3,174.3,0,0,1-174.3,174.3H251.9A174.3,174.3,0,0,1,77.6,620.84V251.9A174.3,174.3,0,0,1,251.9,77.6H620.84a174.3,174.3,0,0,1,174.3,174.3Z"/>
    </symbol>
    <symbol id="linkedin" viewBox="0 0 448 512" fill="currentColor">
        <path d="M416 32H31.9C14.3 32 0 46.5 0 64.3v383.4C0 465.5 14.3 480 31.9 480H416c17.6 0 32-14.5 32-32.3V64.3c0-17.8-14.4-32.3-32-32.3zM135.4 416H69V202.2h66.5V416zm-33.2-243c-21.3 0-38.5-17.3-38.5-38.5S80.9 96 102.2 96c21.2 0 38.5 17.3 38.5 38.5 0 21.3-17.2 38.5-38.5 38.5zm282.1 243h-66.4V312c0-24.8-.5-56.7-34.5-56.7-34.6 0-39.9 27-39.9 54.9V416h-66.4V202.2h63.7v29.2h.9c8.9-16.8 30.6-34.5 62.9-34.5 67.2 0 79.7 44.3 79.7 101.9V416z"/>
    </symbol>
    <symbol id="facebook" viewBox="0 0 320 512" fill="currentColor">
        <path d="M279.14 288l14.22-92.66h-88.91v-60.13c0-25.35 12.42-50.06 52.24-50.06h40.42V6.26S260.43 0 225.36 0c-73.22 0-121.08 44.38-121.08 124.72v70.62H22.89V288h81.39v224h100.17V288z"/>
    </symbol>
    <symbol id="eye" viewBox="0 0 575.98 448" fill="currentColor">
        <path d="M952.1,444.4a78.72,78.72,0,0,1,8.4-.4,96,96,0,1,1-96,96,78.72,78.72,0,0,1,.4-8.4c9.3,4.5,20.1,8.4,31.6,8.4a64.06,64.06,0,0,0,64-64C960.5,464.5,956.6,453.7,952.1,444.4Zm201-47.8c46.8,43.4,78.1,94.5,92.9,131.1a31.8,31.8,0,0,1,0,24.6c-14.8,35.7-46.1,86.8-92.9,131.1C1106,727.2,1041.3,764,960.5,764S815,727.2,767.92,683.4c-46.8-44.3-78.08-95.4-93-131.1a32,32,0,0,1,0-24.6c14.88-36.6,46.16-87.7,93-131.1C815,352.84,879.7,316,960.5,316s145.5,36.84,192.6,80.6ZM960.5,396a144,144,0,1,0,144,144A144,144,0,0,0,960.5,396Z" transform="translate(-672.5 -316)"/>
    </symbol>
    <symbol id="eye_slash" viewBox="0 0 576.98 449" fill="currentColor">
        <path d="M288.5,128.5h-0.3h-1.8c-2.1,0-4.2,0.2-6.3,0.4c4.5,9.3,8.4,20.1,8.4,31.6c0,11.2-2.9,22.3-8.6,32c-6.7,11.5-16.7,20.7-28.8,26.2l-1.7,0.7l10.8,8.4l0,0l90.1,70c7.7-6.5,14.3-14.1,19.6-22.6c1.8-2.9,3.5-5.9,5-9c23-47.7,3-105.1-44.7-128.2C317.2,131.8,302.9,128.5,288.5,128.5z M288.5,128.5h-0.3h-1.8c-2.1,0-4.2,0.2-6.3,0.4c4.5,9.3,8.4,20.1,8.4,31.6c0,11.2-2.9,22.3-8.6,32c-6.7,11.5-16.7,20.7-28.8,26.2l-1.7,0.7l10.8,8.4l0,0l90.1,70c7.7-6.5,14.3-14.1,19.6-22.6c1.8-2.9,3.5-5.9,5-9c23-47.7,3-105.1-44.7-128.2C317.2,131.8,302.9,128.5,288.5,128.5z M355,352.3c-19.8,10.3-41.7,15.9-64,16.3c-0.8,0-1.7,0-2.5,0h-1.9h-1.8c-79.6-2.1-142.3-68.3-140.2-147.9c0.3-9.8,1.5-19.6,3.8-29.1l-0.4-0.3l-89.7-69.8C31.9,153.7,13.4,186.5,3,212.2c-3.3,7.9-3.3,16.7,0,24.6c14.9,35.7,46.2,86.8,93,131.1c46.3,43.1,109.8,79.5,188.8,80.6c1.1,0,2.2,0,3.3,0h0.5c1.1,0,2.2,0,3.2,0s2.5,0,3.7-0.1s2.3-0.1,3.4-0.1s2.2-0.1,3.3-0.2l3.4-0.2c1-0.1,2-0.1,3-0.2s2-0.2,3-0.3l2.9-0.3c42.8-4.2,80.6-18.7,113.1-38.5L355,352.3z M574,212.3c-14.8-36.6-46.1-87.7-92.9-131.1C434.6,38,371.1,1.5,291.8,0.6c-1.1,0-2.2,0-3.3,0H288c-70,0.1-128,28-172.8,63.9c-3.4,2.8-6.8,5.6-10.1,8.4l0,0c-3.2,2.7-6.2,5.5-9.3,8.3c-3.7,3.5-7.3,7-10.9,10.5l78.6,61.1c25.3-44,71.9-71.5,122.7-72.3h2.2h1.4h1.8c79.5,1.7,142.5,67.6,140.8,147c-0.8,37.9-16.6,73.9-43.8,100.3l73,56.8c3.3-2.6,6.4-5.3,9.5-7.9c3.3-2.9,6.6-5.8,9.8-8.8c3.7-3.5,7.3-7,10.8-10.6c40.9-41.7,68.5-87.6,82.2-120.5C577.3,228.9,577.3,220,574,212.3L574,212.3z M288.5,128.5h-0.3h-1.8c-2.1,0-4.2,0.2-6.3,0.4c4.5,9.3,8.4,20.1,8.4,31.6c0,11.2-2.9,22.3-8.6,32c-6.7,11.5-16.7,20.7-28.8,26.2l-1.7,0.7l10.8,8.4l0,0l90.1,70c7.7-6.5,14.3-14.1,19.6-22.6c1.8-2.9,3.5-5.9,5-9c23-47.7,3-105.1-44.7-128.2C317.2,131.8,302.9,128.5,288.5,128.5z"/>
        <path d="M566.8,440.9c-3.2,4.2-8,6.9-13.3,7.6c-0.8,0.1-1.7,0.2-2.5,0.2c-0.8,0-1.7-0.1-2.5-0.2c-3-0.4-5.9-1.4-8.4-3.1c-0.4-0.3-0.9-0.6-1.3-1l-4-3.1l-73-56.8l-73-56.8l-38.4-29.9l0,0l-90.1-70l0,0l-10.8-8.4l0,0l-85.8-66.7L85,91.6l0,0L13.9,36.3C5.2,29.5,3.7,16.9,10.4,8.2c3.7-4.8,9.4-7.6,15.4-7.7h0.8c4.3,0.1,8.5,1.6,11.9,4.2l76.7,59.7l73,56.8l91.7,71.3l94.6,73.6l0.4,0.3L413,296l0.3,0.3l78.2,60.8l0.3,0.2l71.4,55.5C572,419.6,573.5,432.2,566.8,440.9C566.8,440.9,566.8,440.9,566.8,440.9z"/>
    </symbol>
    <symbol id="cancel" viewBox="0 0 49 49" fill="currentColor">
        <path d="M24 24.2132L45.2132 3M3 45.2133L24.2132 24.0001M3 3.00006L45 45.0001" stroke="currentColor" stroke-width="6" stroke-linecap="round"/>
    </symbol>
    <symbol id="map" viewBox="0 0 384 512" fill="currentColor">
        <path d="M215.7 499.2C267 435 384 279.4 384 192C384 86 298 0 192 0S0 86 0 192c0 87.4 117 243 168.3 307.2c12.3 15.3 35.1 15.3 47.4 0zM192 128a64 64 0 1 1 0 128 64 64 0 1 1 0-128z"/>
    </symbol>
    <symbol id="building" viewBox="0 0 384 512" fill="currentColor">
        <path d="M64 48c-8.8 0-16 7.2-16 16V448c0 8.8 7.2 16 16 16h80V400c0-26.5 21.5-48 48-48s48 21.5 48 48v64h80c8.8 0 16-7.2 16-16V64c0-8.8-7.2-16-16-16H64zM0 64C0 28.7 28.7 0 64 0H320c35.3 0 64 28.7 64 64V448c0 35.3-28.7 64-64 64H64c-35.3 0-64-28.7-64-64V64zm88 40c0-8.8 7.2-16 16-16h48c8.8 0 16 7.2 16 16v48c0 8.8-7.2 16-16 16H104c-8.8 0-16-7.2-16-16V104zM232 88h48c8.8 0 16 7.2 16 16v48c0 8.8-7.2 16-16 16H232c-8.8 0-16-7.2-16-16V104c0-8.8 7.2-16 16-16zM88 232c0-8.8 7.2-16 16-16h48c8.8 0 16 7.2 16 16v48c0 8.8-7.2 16-16 16H104c-8.8 0-16-7.2-16-16V232zm144-16h48c8.8 0 16 7.2 16 16v48c0 8.8-7.2 16-16 16H232c-8.8 0-16-7.2-16-16V232c0-8.8 7.2-16 16-16z"/>
    </symbol>
    <symbol id="bookmark" viewBox="0 0 384 512" fill="currentColor">
        <path d="M0 48V487.7C0 501.1 10.9 512 24.3 512c5 0 9.9-1.5 14-4.4L192 400 345.7 507.6c4.1 2.9 9 4.4 14 4.4c13.4 0 24.3-10.9 24.3-24.3V48c0-26.5-21.5-48-48-48H48C21.5 0 0 21.5 0 48z"/>
    </symbol>
    <symbol id="bookmark_stroke" viewBox="0 0 384 512" fill="currentColor">
        <path d="M0 48C0 21.5 21.5 0 48 0l0 48V441.4l130.1-92.9c8.3-6 19.6-6 27.9 0L336 441.4V48H48V0H336c26.5 0 48 21.5 48 48V488c0 9-5 17.2-13 21.3s-17.6 3.4-24.9-1.8L192 397.5 37.9 507.5c-7.3 5.2-16.9 5.9-24.9 1.8S0 497 0 488V48z"/>
    </symbol>
    <symbol id="calendar" viewBox="0 0 448 512" fill="currentColor">
        <path d="M152 24c0-13.3-10.7-24-24-24s-24 10.7-24 24V64H64C28.7 64 0 92.7 0 128v16 48V448c0 35.3 28.7 64 64 64H384c35.3 0 64-28.7 64-64V192 144 128c0-35.3-28.7-64-64-64H344V24c0-13.3-10.7-24-24-24s-24 10.7-24 24V64H152V24zM48 192h80v56H48V192zm0 104h80v64H48V296zm128 0h96v64H176V296zm144 0h80v64H320V296zm80-48H320V192h80v56zm0 160v40c0 8.8-7.2 16-16 16H320V408h80zm-128 0v56H176V408h96zm-144 0v56H64c-8.8 0-16-7.2-16-16V408h80zM272 248H176V192h96v56z"/>
    </symbol>
    <symbol id="money" viewBox="0 0 576 512" fill="currentColor">
        <path d="M312 24V34.5c6.4 1.2 12.6 2.7 18.2 4.2c12.8 3.4 20.4 16.6 17 29.4s-16.6 20.4-29.4 17c-10.9-2.9-21.1-4.9-30.2-5c-7.3-.1-14.7 1.7-19.4 4.4c-2.1 1.3-3.1 2.4-3.5 3c-.3 .5-.7 1.2-.7 2.8c0 .3 0 .5 0 .6c.2 .2 .9 1.2 3.3 2.6c5.8 3.5 14.4 6.2 27.4 10.1l.9 .3 0 0c11.1 3.3 25.9 7.8 37.9 15.3c13.7 8.6 26.1 22.9 26.4 44.9c.3 22.5-11.4 38.9-26.7 48.5c-6.7 4.1-13.9 7-21.3 8.8V232c0 13.3-10.7 24-24 24s-24-10.7-24-24V220.6c-9.5-2.3-18.2-5.3-25.6-7.8c-2.1-.7-4.1-1.4-6-2c-12.6-4.2-19.4-17.8-15.2-30.4s17.8-19.4 30.4-15.2c2.6 .9 5 1.7 7.3 2.5c13.6 4.6 23.4 7.9 33.9 8.3c8 .3 15.1-1.6 19.2-4.1c1.9-1.2 2.8-2.2 3.2-2.9c.4-.6 .9-1.8 .8-4.1l0-.2c0-1 0-2.1-4-4.6c-5.7-3.6-14.3-6.4-27.1-10.3l-1.9-.6c-10.8-3.2-25-7.5-36.4-14.4c-13.5-8.1-26.5-22-26.6-44.1c-.1-22.9 12.9-38.6 27.7-47.4c6.4-3.8 13.3-6.4 20.2-8.2V24c0-13.3 10.7-24 24-24s24 10.7 24 24zM568.2 336.3c13.1 17.8 9.3 42.8-8.5 55.9L433.1 485.5c-23.4 17.2-51.6 26.5-80.7 26.5H192 32c-17.7 0-32-14.3-32-32V416c0-17.7 14.3-32 32-32H68.8l44.9-36c22.7-18.2 50.9-28 80-28H272h16 64c17.7 0 32 14.3 32 32s-14.3 32-32 32H288 272c-8.8 0-16 7.2-16 16s7.2 16 16 16H392.6l119.7-88.2c17.8-13.1 42.8-9.3 55.9 8.5zM193.6 384l0 0-.9 0c.3 0 .6 0 .9 0z"/>
    </symbol>
    <symbol id="checklist" viewBox="0 0 512 512" fill="currentColor">
        <path d="M152.1 38.2c9.9 8.9 10.7 24 1.8 33.9l-72 80c-4.4 4.9-10.6 7.8-17.2 7.9s-12.9-2.4-17.6-7L7 113C-2.3 103.6-2.3 88.4 7 79s24.6-9.4 33.9 0l22.1 22.1 55.1-61.2c8.9-9.9 24-10.7 33.9-1.8zm0 160c9.9 8.9 10.7 24 1.8 33.9l-72 80c-4.4 4.9-10.6 7.8-17.2 7.9s-12.9-2.4-17.6-7L7 273c-9.4-9.4-9.4-24.6 0-33.9s24.6-9.4 33.9 0l22.1 22.1 55.1-61.2c8.9-9.9 24-10.7 33.9-1.8zM224 96c0-17.7 14.3-32 32-32H480c17.7 0 32 14.3 32 32s-14.3 32-32 32H256c-17.7 0-32-14.3-32-32zm0 160c0-17.7 14.3-32 32-32H480c17.7 0 32 14.3 32 32s-14.3 32-32 32H256c-17.7 0-32-14.3-32-32zM160 416c0-17.7 14.3-32 32-32H480c17.7 0 32 14.3 32 32s-14.3 32-32 32H192c-17.7 0-32-14.3-32-32zM48 368a48 48 0 1 1 0 96 48 48 0 1 1 0-96z"/>
    </symbol>
    <symbol id="clock" viewBox="0 0 512 512" fill="currentColor">
        <path d="M464 256A208 208 0 1 1 48 256a208 208 0 1 1 416 0zM0 256a256 256 0 1 0 512 0A256 256 0 1 0 0 256zM232 120V256c0 8 4 15.5 10.7 20l96 64c11 7.4 25.9 4.4 33.3-6.7s4.4-25.9-6.7-33.3L280 243.2V120c0-13.3-10.7-24-24-24s-24 10.7-24 24z"/>
    </symbol>
    <symbol id="star" viewBox="0 0 576 512" fill="currentColor">
        <path d="M316.9 18C311.6 7 300.4 0 288.1 0s-23.4 7-28.8 18L195 150.3 51.4 171.5c-12 1.8-22 10.2-25.7 21.7s-.7 24.2 7.9 32.7L137.8 329 113.2 474.7c-2 12 3 24.2 12.9 31.3s23 8 33.8 2.3l128.3-68.5 128.3 68.5c10.8 5.7 23.9 4.9 33.8-2.3s14.9-19.3 12.9-31.3L438.5 329 542.7 225.9c8.6-8.5 11.7-21.2 7.9-32.7s-13.7-19.9-25.7-21.7L381.2 150.3 316.9 18z"/>
    </symbol>
    <svg id="user-check" viewBox="0 0 640 512" fill="currentColor">
        <path d="M96 128a128 128 0 1 1 256 0A128 128 0 1 1 96 128zM0 482.3C0 383.8 79.8 304 178.3 304h91.4C368.2 304 448 383.8 448 482.3c0 16.4-13.3 29.7-29.7 29.7H29.7C13.3 512 0 498.7 0 482.3zM625 177L497 305c-9.4 9.4-24.6 9.4-33.9 0l-64-64c-9.4-9.4-9.4-24.6 0-33.9s24.6-9.4 33.9 0l47 47L591 143c9.4-9.4 24.6-9.4 33.9 0s9.4 24.6 0 33.9z"/>
    </svg>
</svg>